<svg xmlns="http://www.w3.org/2000/svg" viewBox="0 0 512 512" role="img" aria-label="Onek - 1000냥 주유소">
  <!-- 배경 -->
  <rect width="512" height="512" rx="112" fill="#FF6B00"/>

  <!-- Material Design local_gas_station 디스펜서 + 노즐 (흰색)
       위쪽 작은 사각형은 cutout으로 배경(주황)이 비치는 디스플레이 구멍 -->
  <g fill="white" transform="translate(20,20) scale(20)">
    <path d="M19.77 7.23l.01-.01-3.72-3.72L15 4.56l2.11 2.11c-.94.36-1.61 1.26-1.61 2.33 0 1.38 1.12 2.5 2.5 2.5.36 0 .69-.08 1-.21v7.21c0 .55-.45 1-1 1s-1-.45-1-1V14c0-1.1-.9-2-2-2h-1V5c0-1.1-.9-2-2-2H6c-1.1 0-2 .9-2 2v16h10v-7.5h1.5v5c0 1.38 1.12 2.5 2.5 2.5s2.5-1.12 2.5-2.5V9c0-.69-.28-1.32-.73-1.77zM12 10H6V5h6v5zm6 0c-.55 0-1-.45-1-1s.45-1 1-1 1 .45 1 1-.45 1-1 1z"/>
  </g>

  <!-- 가격 표시 — 디스펜서 본체 흰 면에 주황 "1000" -->
  <text x="200" y="360" font-family="Pretendard, system-ui, -apple-system, sans-serif"
        font-size="70" font-weight="900" fill="#FF6B00" text-anchor="middle" letter-spacing="-2">1000</text>
</svg>
